<svg xmlns="http://www.w3.org/2000/svg" width="27.993" height="17.495" viewBox="0 0 27.993 17.495"><defs><style>.a{fill:#fdfdfe;}</style></defs><g transform="translate(19.245 3.499)"><path class="a" d="M357.249,163.5V160H355.5v3.5H352v1.75h3.5v3.5h1.75v-3.5h3.5V163.5Z" transform="translate(-352 -160)"/></g><g transform="translate(0 0)"><g transform="translate(0 0)"><path class="a" d="M8.748,103v3.5H13.7a5.249,5.249,0,1,1-4.949-7,5.171,5.171,0,0,1,3.4,1.267l2.3-2.638A8.669,8.669,0,0,0,8.748,96a8.748,8.748,0,1,0,8.748,8.748V103Z" transform="translate(0 -96)"/></g></g></svg>