<svg xmlns="http://www.w3.org/2000/svg" width="27.992" height="27.992" viewBox="0 0 27.992 27.992"><defs><style>.a{fill:#fdfdfe;}</style></defs><path class="a" d="M19.245,0H8.748A8.749,8.749,0,0,0,0,8.748v10.5a8.749,8.749,0,0,0,8.748,8.748h10.5a8.749,8.749,0,0,0,8.748-8.748V8.748A8.749,8.749,0,0,0,19.245,0Zm6.123,19.245a6.13,6.13,0,0,1-6.123,6.123H8.748a6.13,6.13,0,0,1-6.123-6.123V8.748A6.13,6.13,0,0,1,8.748,2.624h10.5a6.13,6.13,0,0,1,6.123,6.123Z"/><g transform="translate(6.998 6.998)"><path class="a" d="M135,128a7,7,0,1,0,7,7A7,7,0,0,0,135,128Zm0,11.372A4.374,4.374,0,1,1,139.372,135,4.38,4.38,0,0,1,135,139.372Z" transform="translate(-128 -128)"/></g><g transform="translate(20.587 5.541)"><circle class="a" cx="0.933" cy="0.933" r="0.933"/></g></svg>