<svg xmlns="http://www.w3.org/2000/svg" width="27.993" height="22.744" viewBox="0 0 27.993 22.744"><defs><style>.a{fill:#fdfdfe;}</style></defs><g transform="translate(0 0)"><path class="a" d="M27.993,50.693a11.965,11.965,0,0,1-3.307.906,5.707,5.707,0,0,0,2.525-3.172,11.469,11.469,0,0,1-3.639,1.389,5.738,5.738,0,0,0-9.927,3.924,5.909,5.909,0,0,0,.133,1.309,16.244,16.244,0,0,1-11.829-6,5.74,5.74,0,0,0,1.764,7.67,5.668,5.668,0,0,1-2.593-.707v.063a5.765,5.765,0,0,0,4.6,5.639,5.728,5.728,0,0,1-1.5.189,5.074,5.074,0,0,1-1.086-.1,5.793,5.793,0,0,0,5.362,4,11.531,11.531,0,0,1-7.115,2.448A10.749,10.749,0,0,1,0,68.169a16.156,16.156,0,0,0,8.8,2.575c10.56,0,16.334-8.748,16.334-16.33,0-.254-.009-.5-.021-.742A11.448,11.448,0,0,0,27.993,50.693Z" transform="translate(0 -48)"/></g></svg>