<svg xmlns="http://www.w3.org/2000/svg" width="36.483" height="36.483" viewBox="0 0 36.483 36.483"><defs><style>.a{fill:#fdfdfe;}</style></defs><path class="a" d="M24.727,17.581l-.015.106c-3.576-1.547-3.95-1.753-4.412-1.152-.32.416-1.254,1.361-1.535,1.64s-.568.3-1.05.106a13.747,13.747,0,0,1-3.908-2.1,13.256,13.256,0,0,1-2.7-2.922c-.476-.714.52-.816,1.428-2.306a.688.688,0,0,0-.041-.74C12.373,10,11.4,7.93,11,7.1c-.39-.824-.792-.72-1.093-.72a2.687,2.687,0,0,0-2.225.486c-2.625,2.5-1.963,5.087.283,7.834,4.413,5.014,6.765,5.937,11.064,7.219a7.716,7.716,0,0,0,3.057.171c.933-.128,2.873-1.018,3.278-2.013a3.068,3.068,0,0,0,.293-2.011c-.12-.191-.439-.3-.927-.487Z" transform="translate(2.46 3.908)"/><path class="a" d="M31.193,5.243C19.5-6.056.161,2.139.154,18.079a17.991,17.991,0,0,0,2.425,9.037L0,36.482l9.63-2.511c12.017,6.491,26.847-2.128,26.853-15.883A17.928,17.928,0,0,0,31.17,5.3Zm2.253,12.795a15.135,15.135,0,0,1-22.82,12.927l-.547-.325-5.7,1.482L5.906,26.58l-.363-.57a15.076,15.076,0,0,1,23.481-18.6,14.879,14.879,0,0,1,4.422,10.625Z" transform="translate(0 0)"/></svg>