<svg xmlns="http://www.w3.org/2000/svg" width="27.993" height="19.245" viewBox="0 0 27.993 19.245"><defs><style>.a{fill:#fdfdfe;}</style></defs><g transform="translate(0 0)"><path class="a" d="M26.8,81.855c-.759-1.351-1.583-1.6-3.261-1.694C21.866,80.047,17.651,80,14,80s-7.875.047-9.549.159c-1.674.1-2.5.343-3.266,1.7C.4,83.2,0,85.527,0,89.617v.014C0,93.7.4,96.045,1.184,97.38c.766,1.351,1.59,1.6,3.265,1.709,1.676.1,5.892.156,9.551.156s7.866-.058,9.544-.154c1.678-.114,2.5-.359,3.261-1.709.789-1.335,1.188-3.676,1.188-7.749v-.014C27.993,85.527,27.594,83.2,26.8,81.855ZM10.5,94.871v-10.5l8.748,5.249Z" transform="translate(0 -80)"/></g></svg>