<svg xmlns="http://www.w3.org/2000/svg" width="71.563" height="79.999" viewBox="0 0 71.563 79.999"><g transform="translate(-11377 -181)"><path d="M-2.831,1480.778a23.033,23.033,0,0,1-1.594,7.968l-3.506.956-3.028-3.028-.956-5.9-5.578,4.3-4.621,6.853v7.331l5.737,8.128,6.533,3.984,7.013-.8,6.215-1.753,5.26-6.215.956-7.49-1.594-6.375-4.622-5.737Z" transform="translate(11408 -1259.31)" fill="#d500f9"/><path d="M69.345,61.015l-5.837-15a11.858,11.858,0,0,0-11.053-7.559H47.1Q46.4,37.7,45.631,37V25.445a10.438,10.438,0,0,0-4.482-8.567,9.065,9.065,0,1,0-10.409-.883,10.441,10.441,0,0,0-4.689,4.386,25.842,25.842,0,0,0-3.188,11.034A24.715,24.715,0,0,0,5.248,48.807a1.562,1.562,0,0,0,1.1,1.918,1.545,1.545,0,0,0,.411.056,1.564,1.564,0,0,0,1.507-1.152A21.756,21.756,0,0,1,22.819,34.674V39.3a17.191,17.191,0,1,0,10.624-.608v-4.5A21.564,21.564,0,1,1,8.337,61.262a1.562,1.562,0,0,0-3,.861,24.864,24.864,0,0,0,8.749,12.809,24.669,24.669,0,0,0,33.555-3.37H74.38A1.562,1.562,0,0,0,75.943,70V68.634a7.709,7.709,0,0,0-6.6-7.619ZM36.568,3.125a5.937,5.937,0,1,1-5.937,5.937A5.944,5.944,0,0,1,36.568,3.125Zm6.562,52.187a14.062,14.062,0,1,1-20.312-12.6v2.761a5.312,5.312,0,1,0,10.625,0V41.942A14.061,14.061,0,0,1,43.131,55.312ZM31.881,28.8a1.562,1.562,0,0,0-1.562,1.562v15.1a2.187,2.187,0,1,1-4.375,0V32.876a22.7,22.7,0,0,1,2.84-10.98,7.32,7.32,0,0,1,13.722,3.549V34.6a24.5,24.5,0,0,0-9.062-3.583v-.648A1.563,1.563,0,0,0,31.881,28.8Zm21.875,26.51q0-.946-.072-1.875h.172l6.81,15h-10.7a24.54,24.54,0,0,0,3.787-13.125ZM64.1,68.437,56.285,51.229a1.561,1.561,0,0,0-1.422-.917H53.245a24.627,24.627,0,0,0-3.661-8.73h2.871A8.681,8.681,0,0,1,60.6,47.15L66.79,63.066a1.563,1.563,0,0,0,1.456,1,4.577,4.577,0,0,1,4.568,4.375Zm0,0" transform="translate(11372.619 181)" fill="#293862"/><path d="M2.667,347.507A1.562,1.562,0,1,0,.458,345.3a1.562,1.562,0,1,0,2.209,2.209Zm0,0" transform="translate(11377 -109.959)" fill="#293862"/><path d="M186.083,353.527a1.563,1.563,0,0,0,2.2.181,10.663,10.663,0,0,0,3.773-8.145,1.562,1.562,0,1,0-3.125,0,7.543,7.543,0,0,1-2.67,5.762,1.563,1.563,0,0,0-.181,2.2Zm0,0" transform="translate(11220.305 -109.251)" fill="#293862"/><path d="M149.583,402.332h-.021a1.562,1.562,0,1,0,0,3.125h.039a1.563,1.563,0,0,0-.018-3.125Zm0,0" transform="translate(11252.125 -158.468)" fill="#293862"/></g></svg>