<svg xmlns="http://www.w3.org/2000/svg" width="79.999" height="65.937" viewBox="0 0 79.999 65.937"><g transform="translate(-11583 -188)"><path d="M179.23,1491.871l-2.574-12.259h75.761l1.1,2.452-3.064,9.807-45.971.858Z" transform="translate(11408 -1259.31)" fill="#d500f9"/><path d="M79.664,31.528a1.563,1.563,0,0,0-1.227-.6H70.713A8.312,8.312,0,0,0,69.39,23.6l-2.879-3.849a17.978,17.978,0,0,0-8.528-6.2,7.793,7.793,0,0,0,.454-2.622,8.313,8.313,0,0,0-5.1-7.678L48.91,1.391a17.972,17.972,0,0,0-13.757-.043L30.737,3.118a1.576,1.576,0,0,0-.328.1,8.324,8.324,0,0,0-3.77,3.162A9.136,9.136,0,0,0,15.48,18.788a8.31,8.31,0,0,0-4.542,7.419,7.794,7.794,0,0,0,1.593,4.726H1.562a1.562,1.562,0,0,0-1.526,1.9l2.727,12.5c0,.018,1.285,4.682,1.285,4.682.009.031.018.062.029.093a23.108,23.108,0,0,0,8.718,11.477,23.917,23.917,0,0,0,13.763,4.355h26.98A23.438,23.438,0,0,0,76.327,47.971l.627-2.609,3-12.5a1.566,1.566,0,0,0-.292-1.332Zm-15.656-9.9,2.879,3.849a5.194,5.194,0,0,1,.479,5.458H59.243c-.556-1.6-1.636-4.645-2.89-7.765a66.58,66.58,0,0,0-3.442-7.51l1.3.195.018,0a14.825,14.825,0,0,1,9.781,5.77ZM27.5,24.745a66.453,66.453,0,0,0-6.766-4.739l1.218-.488.016-.007a14.827,14.827,0,0,1,11.357.033l4.43,1.865a5.2,5.2,0,0,1,3.185,4.8,4.688,4.688,0,0,1-6.29,4.406c-.8-.7-3.829-3.3-7.15-5.868Zm2.7,6.188H25.829l2.5-1.536C29,29.945,29.634,30.464,30.2,30.933Zm13.827-13.3a5.193,5.193,0,0,1,4.485-2.574c.079,0,.159,0,.239.009.522.527,1.971,2.454,4.7,9.25l.073.182-6.18.135a4.689,4.689,0,0,1-3.319-7Zm-2.7-1.58a7.813,7.813,0,0,0-1.036,3.178,8.407,8.407,0,0,0-1.326-.7l-2.067-.87L42.675,14.1l.125.1a8.334,8.334,0,0,0-1.474,1.853ZM44.045,26.7a7.8,7.8,0,0,0,3,1.049,1.543,1.543,0,0,0,.205.013h.034l7.439-.162c.474,1.264.887,2.413,1.212,3.331H42.469a7.792,7.792,0,0,0,1.576-4.23ZM36.324,4.245l.017-.007A14.823,14.823,0,0,1,47.7,4.271l4.43,1.866a5.194,5.194,0,0,1,3.185,4.8,4.7,4.7,0,0,1-.379,1.867c-.09-.014-.179-.029-.27-.041l-5.111-.767a1.493,1.493,0,0,0-.214-.016,8.33,8.33,0,0,0-3.733.481c-1.114-.917-2.4-1.954-3.733-2.986a66.462,66.462,0,0,0-6.766-4.739ZM31.162,6.319c.654.157,2.839,1.013,8.787,5.617l.125.1L34.84,15.255a4.688,4.688,0,0,1-6.4-4.363,5.191,5.191,0,0,1,2.725-4.573ZM23.828,9.055a5.968,5.968,0,0,1,1.641.23,8.342,8.342,0,0,0-.156,1.607A7.8,7.8,0,0,0,26.673,15.3a17.828,17.828,0,0,0-5.895,1.322s-1.192.479-2.41.971a6.011,6.011,0,0,1,5.46-8.536ZM16.841,21.6c.716.19,2.938,1.118,8.733,5.6l.155.12-5.264,3.242a4.687,4.687,0,0,1-6.4-4.363,5.191,5.191,0,0,1,2.778-4.6ZM73.289,47.241A20.251,20.251,0,0,1,53.538,62.812H26.558A20.805,20.805,0,0,1,7.048,49.135L6.34,46.559H73.452ZM75.7,37.183H67.5a1.563,1.563,0,0,0,0,3.126h7.454L74.2,43.434H5.548l-.682-3.126H12.5a1.563,1.563,0,0,0,0-3.126H4.184L3.5,34.058H76.454Zm0,0" transform="translate(11583 187.999)" fill="#293862"/><path d="M111.562,241.1A1.562,1.562,0,1,0,110,239.539,1.565,1.565,0,0,0,111.562,241.1Zm0,0" transform="translate(11490.188 -12.794)" fill="#293862"/><path d="M247.562,241.1A1.562,1.562,0,1,0,246,239.539,1.565,1.565,0,0,0,247.562,241.1Zm0,0" transform="translate(11375.438 -12.794)" fill="#293862"/><path d="M383.563,241.1A1.562,1.562,0,1,0,382,239.539,1.565,1.565,0,0,0,383.563,241.1Zm0,0" transform="translate(11260.687 -12.794)" fill="#293862"/><path d="M287.563,241.1h8.75a1.562,1.562,0,0,0,0-3.125h-8.75a1.562,1.562,0,1,0,0,3.125Zm0,0" transform="translate(11341.688 -12.794)" fill="#293862"/><path d="M151.562,241.1h8.75a1.562,1.562,0,1,0,0-3.125h-8.75a1.562,1.562,0,1,0,0,3.125Zm0,0" transform="translate(11456.438 -12.794)" fill="#293862"/></g></svg>