<svg xmlns="http://www.w3.org/2000/svg" width="79.999" height="79.999" viewBox="0 0 79.999 79.999"><g transform="translate(-11793 -181)"><path d="M11893.656,2109.556l-.726,1.668-11.751-.508.436-6.456,2.9-1.378,2.249-4.207-1.887-3.482,4.788-2.9s2.248,1.088,2.466,1.088a17.834,17.834,0,0,0,3.7-1.088c.217-.29,1.16-3.845,1.16-3.845h5.73l1.6,3.264,3.627,1.088c.726.218,3.627-.508,3.627-.508a28.086,28.086,0,0,1,3.409,2.9c.146.435.581,2.321.581,2.321a10.39,10.39,0,0,0-1.379.653c-.29.218,0,2.9,0,2.9l1.959,1.813,1.668,1.378,1.6,2.684-1.088,3.772h-12.694l.871-3.772-2.685-4.715-4.643-1.161-4.279,2.466s-1.161,4.135-1.233,4.352A12.728,12.728,0,0,0,11893.656,2109.556Z" transform="translate(-67 -1875)" fill="#d500f9"/><path d="M75.312,12.5h-3.75V4.687A4.693,4.693,0,0,0,66.874,0H13.125A4.693,4.693,0,0,0,8.437,4.687V12.5H4.687A4.693,4.693,0,0,0,0,17.187v45a4.693,4.693,0,0,0,4.687,4.687h27.5v3.75H29.215a4.693,4.693,0,0,0-4.687,4.687v3.126A1.562,1.562,0,0,0,26.09,80H53.91a1.562,1.562,0,0,0,1.562-1.562V75.311a4.693,4.693,0,0,0-4.687-4.687H47.812v-3.75h27.5A4.693,4.693,0,0,0,80,62.187v-45A4.693,4.693,0,0,0,75.312,12.5Zm0,3.125a1.564,1.564,0,0,1,1.562,1.562V53.124H71.562v-37.5ZM13.125,3.125h53.75a1.564,1.564,0,0,1,1.562,1.562V12.5H11.562V4.687A1.564,1.564,0,0,1,13.125,3.125Zm-8.437,12.5h3.75V27.342a1.562,1.562,0,1,0,3.125,0V15.625H68.437v37.5H60.468V47.975a1.562,1.562,0,0,0-1.562-1.562H56.873a17.385,17.385,0,0,0-1.466-3.537l1.438-1.438a1.563,1.563,0,0,0,0-2.21L52.1,34.484a1.563,1.563,0,0,0-2.21,0l-1.438,1.438a17.372,17.372,0,0,0-3.537-1.466V32.423a1.562,1.562,0,0,0-1.562-1.562H36.645a1.562,1.562,0,0,0-1.562,1.562v2.033a17.385,17.385,0,0,0-3.537,1.466l-1.438-1.438a1.563,1.563,0,0,0-2.21,0l-4.744,4.744a1.563,1.563,0,0,0,0,2.21l1.438,1.438a17.381,17.381,0,0,0-1.466,3.537H21.094a1.562,1.562,0,0,0-1.562,1.562v5.149H11.562V41.4a1.562,1.562,0,0,0-3.125,0v11.72H3.125V17.187a1.564,1.564,0,0,1,1.562-1.562Zm22.976,25.9-1.194-1.194L29,37.8,30.2,38.993a1.563,1.563,0,0,0,1.955.206,14.312,14.312,0,0,1,4.819-2,1.562,1.562,0,0,0,1.237-1.528V33.986h3.584v1.688A1.562,1.562,0,0,0,43.028,37.2a14.311,14.311,0,0,1,4.819,2,1.563,1.563,0,0,0,1.955-.206L51,37.8l2.534,2.534-1.194,1.194a1.563,1.563,0,0,0-.206,1.955,14.314,14.314,0,0,1,2,4.819,1.563,1.563,0,0,0,1.528,1.237h1.687v3.587H47.6a7.813,7.813,0,1,0-15.205,0H22.656V49.538h1.688A1.562,1.562,0,0,0,25.872,48.3a14.312,14.312,0,0,1,2-4.819,1.562,1.562,0,0,0-.206-1.955Zm7.648,9.8a4.688,4.688,0,1,1,9.015,1.795H35.673A4.662,4.662,0,0,1,35.311,51.33ZM52.347,75.311v1.563H27.652V75.311a1.564,1.564,0,0,1,1.562-1.562h21.57a1.564,1.564,0,0,1,1.562,1.562Zm-7.66-4.687H35.312v-3.75h9.375Zm30.625-6.875H4.687a1.564,1.564,0,0,1-1.562-1.562V56.249H76.874v5.937A1.564,1.564,0,0,1,75.312,63.749Z" transform="translate(11793 181)" fill="#293862"/><path d="M277.563,43.125h16.875a1.562,1.562,0,0,0,0-3.125H277.563a1.562,1.562,0,1,0,0,3.125Z" transform="translate(11560.125 147.25)" fill="#293862"/><path d="M153.562,43.125a1.563,1.563,0,1,0-1.1-.458A1.574,1.574,0,0,0,153.562,43.125Z" transform="translate(11664.75 147.25)" fill="#293862"/><path d="M109.562,43.125a1.563,1.563,0,1,0-1.1-.458A1.574,1.574,0,0,0,109.562,43.125Z" transform="translate(11701.875 147.25)" fill="#293862"/><path d="M197.562,43.125a1.563,1.563,0,1,0-1.1-.458A1.574,1.574,0,0,0,197.562,43.125Z" transform="translate(11627.625 147.25)" fill="#293862"/><path d="M103.562,131.123h3.718a1.562,1.562,0,0,0,0-3.125h-3.718a1.562,1.562,0,1,0,0,3.125Z" transform="translate(11706.938 73.001)" fill="#293862"/><path d="M171.361,131.123h14.334a1.562,1.562,0,1,0,0-3.125H171.361a1.562,1.562,0,1,0,0,3.125Z" transform="translate(11649.732 73.001)" fill="#293862"/><path d="M103.562,179.121h9.062a1.562,1.562,0,1,0,0-3.125h-9.062a1.562,1.562,0,1,0,0,3.125Z" transform="translate(11706.938 32.503)" fill="#293862"/><path d="M307.1,131.123h13.2a1.562,1.562,0,1,0,0-3.125H307.1a1.562,1.562,0,0,0,0,3.125Z" transform="translate(11535.203 73.001)" fill="#293862"/><path d="M333.817,176H323.123a1.562,1.562,0,0,0,0,3.125h10.694a1.562,1.562,0,0,0,0-3.125Z" transform="translate(11521.683 32.503)" fill="#293862"/><path d="M55.562,213.115a1.563,1.563,0,1,0-1.1-.458A1.574,1.574,0,0,0,55.562,213.115Z" transform="translate(11747.438 3.82)" fill="#293862"/></g></svg>