<svg xmlns="http://www.w3.org/2000/svg" width="79.999" height="64.199" viewBox="0 0 79.999 64.199"><g transform="translate(-12003 -189)"><path d="M12083.164,2095.35s10.837-9.084,18.168-10.359,17.69-2.55,25.817,2.869,8.128,8.765,10.04,7.49,3.028-1.275,2.391-4.3-13.706-11.952-26.455-13.227-24.7,5.9-29,10.04-3.824,2.869-3.506,4.781S12083.164,2095.35,12083.164,2095.35Z" transform="translate(-67 -1875)" fill="#d500f9"/><path d="M42.735,72.049a1.554,1.554,0,0,0,.944-.319l.03-.022a1.562,1.562,0,0,0-1.89-2.488l-.03.022a1.563,1.563,0,0,0,.947,2.807Zm0,0" transform="translate(11968.262 130.786)" fill="#293862"/><path d="M289.9,371.54a1.558,1.558,0,0,0,.944-.318l.029-.023a1.562,1.562,0,1,0-1.89-2.488l-.029.022a1.562,1.562,0,0,0,.946,2.806Zm0,0" transform="translate(11759.715 -121.91)" fill="#293862"/><path d="M78.713,16.536A54.708,54.708,0,0,0,19.058,4.674a55.222,55.222,0,0,0-6.508,3.213l-.231.134a1.562,1.562,0,1,0,1.576,2.7l.22-.128A52.1,52.1,0,0,1,20.254,7.56,51.653,51.653,0,0,1,76.5,18.746a1.266,1.266,0,0,1-1.791,1.79,49.063,49.063,0,0,0-69.427,0,1.266,1.266,0,1,1-1.79-1.79c.686-.686,1.4-1.362,2.128-2.01A1.562,1.562,0,0,0,3.544,14.4c-.77.687-1.53,1.4-2.258,2.133a4.391,4.391,0,0,0,6.21,6.21,45.938,45.938,0,0,1,65.008,0,4.391,4.391,0,0,0,6.21-6.21Zm0,0" transform="translate(12003 188.5)" fill="#293862"/><path d="M104.2,84.289a42.188,42.188,0,0,0-45.935,9.134,4.391,4.391,0,0,0,6.21,6.209,33.347,33.347,0,0,1,47.2,0,4.391,4.391,0,0,0,6.21-6.209A41.971,41.971,0,0,0,104.2,84.289Zm11.478,13.133a1.266,1.266,0,0,1-1.79,0A36.394,36.394,0,0,0,88.074,86.731h0A36.394,36.394,0,0,0,62.262,97.423a1.266,1.266,0,1,1-1.79-1.79,39.063,39.063,0,0,1,55.2,0,1.265,1.265,0,0,1,0,1.79Zm0,0" transform="translate(11954.926 120.515)" fill="#293862"/><path d="M147.45,163.9a29.6,29.6,0,0,0-32.215,6.4,4.391,4.391,0,1,0,6.21,6.21,20.758,20.758,0,0,1,29.4,0,4.391,4.391,0,1,0,6.21-6.209A29.442,29.442,0,0,0,147.45,163.9Zm7.394,10.4a1.265,1.265,0,0,1-1.79,0,23.884,23.884,0,0,0-33.819,0h0a1.266,1.266,0,1,1-1.79-1.791,26.473,26.473,0,0,1,37.4,0,1.265,1.265,0,0,1,0,1.79Zm0,0" transform="translate(11906.855 52.531)" fill="#293862"/><path d="M204.979,290.43a9.449,9.449,0,0,0,0,18.9,9.5,9.5,0,0,0,2.283-.278,1.562,1.562,0,1,0-.753-3.033,6.372,6.372,0,0,1-1.531.186,6.324,6.324,0,1,1,6.324-6.324,1.562,1.562,0,0,0,3.125,0,9.448,9.448,0,0,0-9.449-9.449Zm0,0" transform="translate(11838.021 -56.129)" fill="#293862"/></g></svg>