<svg xmlns="http://www.w3.org/2000/svg" xmlns:xlink="http://www.w3.org/1999/xlink" width="166.475" height="40.413" viewBox="0 0 166.475 40.413"><defs><style>.a{fill:none;}.b{clip-path:url(#a);}.c{fill:#e5edf7;}.d{clip-path:url(#b);}.e{clip-path:url(#c);}.f{clip-path:url(#d);}.g{clip-path:url(#e);}.h{clip-path:url(#f);}.i{clip-path:url(#g);}.j{clip-path:url(#h);}.k{clip-path:url(#i);}</style><clipPath id="a"><path class="a" d="M467.189,77.54l-4.395,15.189a9.517,9.517,0,0,1-1.781,3.722q-1.7,2.078-5.384,2.081t-4.222-2.081a7.119,7.119,0,0,1,.36-3.722l4.4-15.189h-6.173l-4.4,15.189q-1.139,3.945-.333,6.133,1.542,4.029,9.1,4.032t11.4-4.032a14.737,14.737,0,0,0,3.213-6.133l4.395-15.189Z" transform="translate(-444.927 -77.54)"/></clipPath><clipPath id="b"><path class="a" d="M56.075,32.31,51.73,47.369h9.655L65.75,32.31Z" transform="translate(-51.73 -32.31)"/></clipPath><clipPath id="c"><path class="a" d="M106.112,32.31l-4.395,15.162H86.784L84.84,54.321h14.9l-5.1,17.746h9.709L115.82,32.31Z" transform="translate(-84.84 -32.31)"/></clipPath><clipPath id="d"><path class="a" d="M35.384,99.13,30.33,116.639h9.675L45.036,99.13Z" transform="translate(-30.33 -99.13)"/></clipPath><clipPath id="e"><path class="a" d="M333.147,99.17l-5.047,17.5h15.6l.9-3.15h-11.4l1.292-4.5h10l.886-3.036h-10l1.065-3.719h10.894l.9-3.093Z" transform="translate(-328.1 -99.17)"/></clipPath><clipPath id="f"><path class="a" d="M388.5,102.193h4.994a4.824,4.824,0,0,1,2.018.31c.716.356.929,1.072.626,2.134a2.813,2.813,0,0,1-1.864,1.971,7.178,7.178,0,0,1-2.261.283h-4.868Zm-3.329-3.036-5.051,17.5h4.205l1.971-6.862h4.438a3.566,3.566,0,0,1,2.43.556c.35.37.38,1.115.077,2.231l-.443,1.628a6.993,6.993,0,0,0-.25,1.508,8.551,8.551,0,0,0,.017.939H397.3l.113-.443a1.035,1.035,0,0,1-.493-1,8.5,8.5,0,0,1,.363-1.631l.333-1.172a4.663,4.663,0,0,0,.193-2.74,2.521,2.521,0,0,0-1.611-1.378,5.96,5.96,0,0,0,2.933-1.7,6.413,6.413,0,0,0,1.458-2.454,4.019,4.019,0,0,0,.133-1.841,3.769,3.769,0,0,0-.633-1.472,3.582,3.582,0,0,0-1.631-1.219,9.469,9.469,0,0,0-3.193-.449Z" transform="translate(-380.12 -99.15)"/></clipPath><clipPath id="g"><path class="a" d="M164.614,103.169l.586,6.885h-5.211Zm-1.229-4L151,116.666h4.5l2.457-3.6h7.584l.293,3.6h4.661l-2.247-17.5Z" transform="translate(-151 -99.17)"/></clipPath><clipPath id="h"><path class="a" d="M286.55,99.17l-10.028,7.2,2.081-7.2h-4.235l-5.047,17.5h4.232l1.681-5.853,2.57-1.795,4.158,7.648h5.53l-5.9-10.295,10.514-7.2Z" transform="translate(-269.32 -99.17)"/></clipPath><clipPath id="i"><path class="a" d="M219.224,100.32a12.459,12.459,0,0,0-4.924,7.062q-1.222,4.242.609,6.659t6.289,2.434a11.63,11.63,0,0,0,6.4-1.791,11.26,11.26,0,0,0,4.2-4.661h-4.272a7.561,7.561,0,0,1-1.665,2.028,5.88,5.88,0,0,1-3.822,1.262,3.62,3.62,0,0,1-3.21-1.468c-.669-.976-.719-2.45-.15-4.411a9.364,9.364,0,0,1,2.664-4.551,6.113,6.113,0,0,1,4.185-1.6q2.3,0,3.14,1.139a3.409,3.409,0,0,1,.526,1.9h4.292a4.585,4.585,0,0,0-.473-3.266q-1.568-2.9-6.762-2.9a12.119,12.119,0,0,0-7.025,2.161" transform="translate(-213.811 -98.158)"/></clipPath></defs><g transform="translate(-30.33 -32.31)"><g class="b" transform="translate(168.367 47.369)"><rect class="c" width="38.055" height="37.313" transform="translate(-12.23 8.669) rotate(-35.79)"/></g><g class="d" transform="translate(37.455 32.31)"><path class="c" d="M49.98,47.369h14.6l.583-15.059h-14.6Z" transform="translate(-50.563 -32.31)"/></g><g class="e" transform="translate(48.479 32.31)"><path class="c" d="M80.22,72.067h32.518l1.538-39.757H81.758Z" transform="translate(-81.758 -32.31)"/></g><g class="f" transform="translate(30.33 54.557)"><path class="c" d="M28.3,116.639H43.682l.679-17.509H28.976Z" transform="translate(-28.976 -99.13)"/></g><g class="g" transform="translate(129.47 54.571)"><path class="c" d="M326.07,116.666h20.822l.676-17.5H326.746Z" transform="translate(-326.746 -99.17)"/></g><g class="h" transform="translate(146.79 54.564)"><path class="c" d="M378.13,116.666h21.385l.679-17.5H378.806Z" transform="translate(-378.793 -99.163)"/></g><g class="i" transform="translate(70.506 54.571)"><path class="c" d="M148.94,116.666h20.176l.676-17.5H149.616Z" transform="translate(-149.626 -99.17)"/></g><g class="j" transform="translate(109.9 54.571)"><path class="c" d="M267.29,116.666h23.462l.679-17.5H267.966Z" transform="translate(-267.966 -99.17)"/></g><g class="k" transform="translate(91.419 54.234)"><path class="c" d="M210.7,116.478h20.965l.709-18.318H211.409Z" transform="translate(-211.736 -98.159)"/></g></g></svg>