<svg id="Layer_1" data-name="Layer 1" xmlns="http://www.w3.org/2000/svg" xmlns:xlink="http://www.w3.org/1999/xlink" viewBox="0 0 560.67 186"><defs><clipPath id="clip-path"><path class="cls-1" d="M511.79 77.54l-13.2 45.62q-2.19 7.67-5.35 11.18-5.1 6.24-16.17 6.25t-12.68-6.25q-1.11-3.53 1.08-11.18l13.21-45.62h-18.54l-13.21 45.62q-3.42 11.85-1 18.42 4.63 12.1 27.32 12.11t34.24-12.11q6.22-6.57 9.65-18.42l13.2-45.62z"/></clipPath><clipPath id="clip-path-2"><path class="cls-1" d="M64.78 32.31L51.73 77.54h29l13.11-45.23H64.78z"/></clipPath><clipPath id="clip-path-3"><path class="cls-1" d="M148.73 32.31l-13.2 45.54H90.68l-5.84 20.57h44.75l-15.31 53.3h29.16l34.45-119.41h-29.16z"/></clipPath><clipPath id="clip-path-4"><path class="cls-1" d="M45.51 99.13l-15.18 52.59h29.06L74.5 99.13H45.51z"/></clipPath><clipPath id="clip-path-5"><path class="cls-1" d="M343.26 99.17l-15.16 52.55h46.86l2.71-9.46h-34.23l3.88-13.51h30.04l2.66-9.12h-30.04l3.2-11.17h32.72l2.71-9.29h-45.35z"/></clipPath><clipPath id="clip-path-6"><path class="cls-1" d="M405.29 108.29h15a14.49 14.49 0 016.06.93c2.15 1.07 2.79 3.22 1.88 6.41a8.45 8.45 0 01-5.6 5.92 21.56 21.56 0 01-6.79.85h-14.62zm-10-9.12l-15.17 52.55h12.63l5.92-20.61H412c3.81 0 6.25.56 7.3 1.67s1.14 3.35.23 6.7l-1.33 4.89a21 21 0 00-.75 4.53 25.67 25.67 0 00.05 2.82h14.22l.34-1.33a3.11 3.11 0 01-1.48-3 25.53 25.53 0 011.09-4.9l1-3.52c1.06-3.69 1.26-6.43.58-8.23s-2.29-3.18-4.84-4.14a17.9 17.9 0 008.81-5.12 19.26 19.26 0 004.38-7.37 12.07 12.07 0 00.4-5.53 11.32 11.32 0 00-1.9-4.42 10.76 10.76 0 00-4.9-3.66c-2.1-.84-5.29-1.29-9.59-1.35z"/></clipPath><clipPath id="clip-path-7"><path class="cls-1" d="M191.89 111.18l1.76 20.68H178zm-3.69-12L151 151.72h13.51l7.38-10.81h22.78l.88 10.81h14l-6.75-52.55z"/></clipPath><clipPath id="clip-path-8"><path class="cls-1" d="M321.07 99.17l-30.12 21.63 6.25-21.63h-12.72l-15.16 52.55h12.71l5.05-17.58 7.72-5.39 12.49 22.97h16.61l-17.72-30.92 31.58-21.63h-16.69z"/></clipPath><clipPath id="clip-path-9"><path class="cls-1" d="M230.07 104.65q-10.81 7.45-14.79 21.21-3.67 12.74 1.83 20t18.89 7.31a34.93 34.93 0 0019.23-5.38 33.82 33.82 0 0012.6-14H255a22.71 22.71 0 01-5 6.09 17.66 17.66 0 01-11.48 3.79c-4.41 0-7.63-1.48-9.64-4.41s-2.16-7.36-.45-13.25 4.35-10.45 8-13.67a18.36 18.36 0 0112.57-4.8q6.92 0 9.43 3.42a10.24 10.24 0 011.58 5.71h12.89a13.77 13.77 0 00-1.42-9.81q-4.71-8.7-20.31-8.7a36.4 36.4 0 00-21.1 6.49"/></clipPath><linearGradient id="linear-gradient" x1="-1440.71" y1="-190.4" x2="-1439.71" y2="-190.4" gradientTransform="matrix(-93.2 0 0 93.2 -133734.17 17861.89)" gradientUnits="userSpaceOnUse"><stop offset="0" stop-color="#929497"/><stop offset="1" stop-color="#59595c"/></linearGradient><linearGradient id="linear-gradient-2" x1="-1430.37" y1="-203.26" x2="-1429.37" y2="-203.26" gradientTransform="matrix(410.3 0 -15.88 410.3 583688.6 83452.01)" gradientUnits="userSpaceOnUse"><stop offset="0" stop-color="#1f4284"/><stop offset=".31" stop-color="#1f4284"/><stop offset=".44" stop-color="#235694"/><stop offset=".67" stop-color="#2973ac"/><stop offset=".86" stop-color="#2d85ba"/><stop offset="1" stop-color="#2e8bbf"/></linearGradient><linearGradient id="linear-gradient-3" x1="-1430.37" y1="-203.26" x2="-1429.37" y2="-203.26" gradientTransform="matrix(410.3 0 -15.88 410.3 583687.16 83489.1)" xlink:href="#linear-gradient-2"/><linearGradient id="linear-gradient-4" x1="-1430.37" y1="-203.26" x2="-1429.37" y2="-203.26" gradientTransform="matrix(410.3 0 -15.88 410.3 583685.87 83522.5)" xlink:href="#linear-gradient-2"/><linearGradient id="linear-gradient-5" x1="-1430.37" y1="-203.26" x2="-1429.37" y2="-203.26" gradientTransform="matrix(410.3 0 -15.88 410.3 583685.87 83522.52)" xlink:href="#linear-gradient-2"/><linearGradient id="linear-gradient-9" x1="-1430.37" y1="-203.26" x2="-1429.37" y2="-203.26" gradientTransform="matrix(410.3 0 -15.88 410.3 583685.86 83522.75)" xlink:href="#linear-gradient-2"/><style>.cls-1{fill:none}.cls-11{fill:url(#linear-gradient-5)}</style></defs><g clip-path="url(#clip-path)"><path transform="rotate(-35.79 487.313 115.611)" fill="url(#linear-gradient)" d="M430.17 59.58h114.3v112.07h-114.3z"/></g><g clip-path="url(#clip-path-2)"><path fill="url(#linear-gradient-2)" d="M49.98 77.54h43.86l1.75-45.23H51.73l-1.75 45.23z"/></g><g clip-path="url(#clip-path-3)"><path fill="url(#linear-gradient-3)" d="M80.22 151.72h97.67l4.62-119.41H84.84l-4.62 119.41z"/></g><g clip-path="url(#clip-path-4)"><path fill="url(#linear-gradient-4)" d="M28.3 151.72h46.2l2.04-52.59H30.33l-2.03 52.59z"/></g><g clip-path="url(#clip-path-5)"><path class="cls-11" d="M326.07 151.72h62.54l2.03-52.55H328.1l-2.03 52.55z"/></g><g clip-path="url(#clip-path-6)"><path class="cls-11" d="M378.13 151.72h64.23l2.04-52.55h-64.24l-2.03 52.55z"/></g><g clip-path="url(#clip-path-7)"><path class="cls-11" d="M148.94 151.72h60.6l2.03-52.55h-60.6l-2.03 52.55z"/></g><g clip-path="url(#clip-path-8)"><path class="cls-11" d="M267.29 151.72h70.47l2.04-52.55h-70.48l-2.03 52.55z"/></g><g clip-path="url(#clip-path-9)"><path fill="url(#linear-gradient-9)" d="M210.7 153.18h62.97l2.13-55.02h-62.97l-2.13 55.02z"/></g></svg>